<?xml version="1.0" encoding="utf-8"?>
<!-- Generator: Adobe Illustrator 16.0.2, SVG Export Plug-In . SVG Version: 6.00 Build 0)  -->
<!DOCTYPE svg PUBLIC "-//W3C//DTD SVG 1.1//EN" "http://www.w3.org/Graphics/SVG/1.1/DTD/svg11.dtd">
<svg version="1.1" id="圖層_1" xmlns="http://www.w3.org/2000/svg" xmlns:xlink="http://www.w3.org/1999/xlink" x="0px" y="0px"
	 width="375px" height="300px" viewBox="0 0 375 300" enable-background="new 0 0 375 300" xml:space="preserve">
<circle fill="#4CD8A5" cx="187.5" cy="150.001" r="148.201"/>
<g>
	<g>
		<g>
			<g>
				<path fill="#BC8E50" d="M141.797,46.11c-5.218,0-9.446,4.23-9.446,9.444v73.079c0,5.218,4.229,9.444,9.446,9.444h72.524V46.11
					H141.797z"/>
				<path fill="#996633" d="M221.54,46.11h-7.218v91.968h7.218c5.216,0,9.446-4.227,9.446-9.444V55.555
					C230.986,50.341,226.755,46.11,221.54,46.11z"/>
			</g>
			<g>
				<polygon fill="#FFD34E" points="192.542,46.11 170.794,46.11 170.794,56.947 192.542,65.436 				"/>
			</g>
			<path fill="#4E3824" d="M218.793,81.813c0,1.655-1.876,2.999-4.188,2.999h-15.42c-2.313,0-4.188-1.344-4.188-2.999l0,0
				c0-1.657,1.876-2.999,4.188-2.999h15.42C216.917,78.813,218.793,80.155,218.793,81.813L218.793,81.813z"/>
		</g>
		<g>
			<g>
				<path fill="#D9B166" d="M196.112,130.795c-5.217,0-9.445,4.229-9.445,9.445v73.08c0,5.216,4.229,9.444,9.445,9.444h72.526
					v-91.97H196.112z"/>
				<path fill="#BC8E50" d="M275.854,130.795h-7.216v91.97h7.216c5.218,0,9.446-4.229,9.446-9.444v-73.08
					C285.3,135.024,281.072,130.795,275.854,130.795z"/>
			</g>
			<g>
				<polygon fill="#FFD34E" points="246.858,130.795 225.109,130.795 225.109,141.637 246.858,150.124 				"/>
			</g>
			<path fill="#4E3824" d="M273.109,166.498c0,1.658-1.876,3-4.188,3h-15.419c-2.314,0-4.189-1.342-4.189-3l0,0
				c0-1.654,1.875-2.999,4.189-2.999h15.419C271.233,163.499,273.109,164.844,273.109,166.498L273.109,166.498z"/>
		</g>
		<g>
			<g>
				<path fill="#BC8E50" d="M99.144,130.795c-5.217,0-9.446,4.229-9.446,9.445v73.08c0,5.216,4.229,9.444,9.446,9.444h72.528v-91.97
					H99.144z"/>
				<path fill="#996633" d="M178.886,130.795h-7.214v91.97h7.214c5.217,0,9.447-4.229,9.447-9.444v-73.08
					C188.333,135.024,184.103,130.795,178.886,130.795z"/>
			</g>
			<g>
				<polygon fill="#FFD34E" points="149.889,130.795 128.141,130.795 128.141,141.637 149.889,150.124 				"/>
			</g>
			<path fill="#4E3824" d="M176.141,166.498c0,1.658-1.875,3-4.19,3h-15.416c-2.315,0-4.191-1.342-4.191-3l0,0
				c0-1.654,1.876-2.999,4.191-2.999h15.416C174.266,163.499,176.141,164.844,176.141,166.498L176.141,166.498z"/>
		</g>
	</g>
	<g>
		<g>
			<path fill="#BA893A" d="M86.377,238.483v0.533c0,3.618,3.854,6.554,8.609,6.554h185.026c4.754,0,8.609-2.936,8.609-6.554v-0.533
				H86.377z"/>
			<path fill="#D9B166" d="M288.623,229.314c0-3.615-3.855-6.55-8.609-6.55H94.987c-4.755,0-8.609,2.935-8.609,6.55v9.169h202.245
				V229.314z"/>
		</g>
		<g>
			<g>
				<path fill="#BC8E50" d="M141.71,241.81c0-1.139-0.681-2.059-1.52-2.059h-24.168c-0.84,0-1.518,0.92-1.518,2.059v6.263h27.205
					V241.81z"/>
				<path fill="#996633" d="M114.505,243.913v6.446c0,1.949,0.678,3.53,1.518,3.53h24.168c0.839,0,1.52-1.581,1.52-3.53v-6.446
					H114.505z"/>
			</g>
			<g>
				<path fill="#BC8E50" d="M260.494,241.81c0-1.139-0.681-2.059-1.519-2.059h-24.168c-0.84,0-1.519,0.92-1.519,2.059v6.263h27.205
					V241.81z"/>
				<path fill="#996633" d="M233.289,243.913v6.446c0,1.949,0.679,3.53,1.519,3.53h24.168c0.838,0,1.519-1.581,1.519-3.53v-6.446
					H233.289z"/>
			</g>
		</g>
	</g>
</g>
</svg>
