<svg xmlns="http://www.w3.org/2000/svg" width="192" height="191.63" viewBox="0 0 192 191.63">
  <g id="Group_3" data-name="Group 3" transform="translate(-64 -102.001)">
    <path id="Union_3" data-name="Union 3" d="M96.035,191.63h0A43.719,43.719,0,0,0,90.32,174.5c-6.806-11.787-17.926-19.4-28.331-19.4a18.159,18.159,0,0,0-9.2,2.391c-5.872,3.39-9.481,10.13-9.9,18.49a96.494,96.494,0,0,1-31.135-33.924A95.872,95.872,0,0,1,16.4,42.324,96.285,96.285,0,0,1,58.632,7.543,95.382,95.382,0,0,1,95.527,0C72.077.312,53,23.862,53,52.5c0,23.015,12.191,42.619,29.1,49.688l3.921-6.433a1.763,1.763,0,0,1,1.949,0L92.39,103h7.219l4.417-7.246a1.763,1.763,0,0,1,1.949,0l3.921,6.433C126.807,95.116,139,75.512,139,52.5,139,23.862,119.922.312,96.474,0a95.525,95.525,0,0,1,53.2,16.393,96.285,96.285,0,0,1,34.781,42.237,95.979,95.979,0,0,1-4.185,83.387,96.465,96.465,0,0,1-31.086,33.914c-.432-8.339-4.04-15.062-9.9-18.445a18.164,18.164,0,0,0-9.2-2.391c-10.4,0-21.525,7.616-28.33,19.4a43.7,43.7,0,0,0-5.715,17.131h0Z" transform="translate(64 102.001)" fill="#555"/>
    <g id="_002-diamond" data-name="002-diamond" transform="translate(136 93.328)">
      <path id="Path_4" data-name="Path 4" d="M265.792,172.138,256,200.363l24.074-28.225Z" transform="translate(-231.926 -119.962)" fill="#72ff6e"/>
      <g id="Group_2" data-name="Group 2" transform="translate(0 39.724)">
        <path id="Path_5" data-name="Path 5" d="M9.962,39.724,0,52.176H14.282Z" transform="translate(0 -39.724)" fill="#93ff87"/>
        <path id="Path_6" data-name="Path 6" d="M360.129,52.176h14.282l-9.962-12.452Z" transform="translate(-326.263 -39.724)" fill="#93ff87"/>
        <path id="Path_7" data-name="Path 7" d="M171.456,52.176l-9.792-12.452-9.792,12.452Z" transform="translate(-137.589 -39.724)" fill="#93ff87"/>
      </g>
      <path id="Path_8" data-name="Path 8" d="M120.043,39.724H105.931l4.32,12.452Z" transform="translate(-95.969)" fill="#46fc4d"/>
      <path id="Path_9" data-name="Path 9" d="M270.112,39.724H256l9.792,12.452Z" transform="translate(-231.926)" fill="#72ff6e"/>
      <path id="Path_10" data-name="Path 10" d="M151.871,172.138l9.792,28.225,9.792-28.225Z" transform="translate(-137.589 -119.962)" fill="#46fc4d"/>
      <path id="Path_11" data-name="Path 11" d="M0,172.138l24.074,28.225-9.792-28.225Z" transform="translate(0 -119.962)" fill="#4bef66"/>
    </g>
  </g>
</svg>
