<?xml version="1.0" encoding="utf-8"?>
<!-- Generator: Adobe Illustrator 19.0.0, SVG Export Plug-In . SVG Version: 6.00 Build 0)  -->
<svg version="1.1" id="圖層_1" xmlns="http://www.w3.org/2000/svg" xmlns:xlink="http://www.w3.org/1999/xlink" x="0px" y="0px"
	 viewBox="0 0 225 81.5" style="enable-background:new 0 0 225 81.5;" xml:space="preserve">
<style type="text/css">
	.st0{fill:#FFFFFF;}
	.st1{fill:#717071;}
	.st2{fill:#F9BE00;}
</style>
<g id="XMLID_2365_">
	<path id="XMLID_888_" class="st0" d="M12.7,81c-3.8,0-7.4-0.9-11.2-2.6L0,77.5V49.6l4.4,2.9c1.9,1.2,3,1.5,3.6,1.5
		c1.1,0,1.9-0.3,2.6-0.9c0.5-0.5,0.8-0.9,0.8-1.6c0-0.2-0.4-1.5-2.6-5.4C5.4,40.1,3.7,34,3.7,28c0-7.5,2.7-14,8-19.4
		C17.1,3.1,23.5,0.4,31,0.4c3.2,0,6.7,0.5,9.8,1.6L43,2.7v26.6l-4.2-1.3c-1.7-0.6-2.5-0.6-2.7-0.6c-0.8,0-1.4,0.3-2,0.9
		c-0.6,0.6-0.9,1.3-0.9,2.2c0,0.5,0.2,1.7,1.5,3.9l1.6,2.8c3.2,5.5,4.8,11,4.8,16.2c0,7.7-2.8,14.3-8.3,19.7
		C27.3,78.3,20.5,81,12.7,81z"/>
	<path id="XMLID_2377_" class="st1" d="M39.6,4.8v20.3c-1.5-0.5-2.7-0.8-3.5-0.8c-1.6,0-3,0.6-4.1,1.8c-1.1,1.2-1.7,2.6-1.7,4.3
		c0,1.4,0.6,3.2,1.9,5.4l1.6,2.8c2.9,5.1,4.4,10,4.4,14.7c0,6.9-2.5,12.8-7.4,17.5c-4.9,4.8-10.9,7.2-18,7.2
		c-3.4,0-6.8-0.8-10.1-2.3V55.1C4.6,56.4,6.4,57,8,57c1.8,0,3.4-0.5,4.6-1.6c1.2-1.1,1.8-2.4,1.8-4c0-1-1-3.3-3-6.8
		C8.3,39.1,6.7,33.5,6.7,28c0-6.7,2.4-12.5,7.2-17.3C18.6,5.8,24.3,3.4,31,3.4C33.9,3.4,36.7,3.9,39.6,4.8z"/>
	<path id="XMLID_889_" class="st0" d="M82.7,81C71.6,81,62,77,54.1,69.2c-7.8-7.8-11.8-17.4-11.8-28.5c0-11.2,4-20.8,11.9-28.6
		c7.9-7.8,17.7-11.7,29-11.7c10.9,0,20.3,4,28,11.9c7.7,7.9,11.7,17.4,11.7,28.4c0,11.2-4,20.8-11.8,28.6C103.4,77,93.8,81,82.7,81z
		 M82.7,27.3c-3.5,0-6.4,1.3-8.9,3.9c-2.5,2.6-3.7,5.7-3.7,9.5c0,3.7,1.2,6.8,3.8,9.5c2.5,2.6,5.4,3.9,8.9,3.9
		c3.6,0,6.5-1.3,8.9-3.8c2.5-2.6,3.7-5.7,3.7-9.5s-1.2-6.9-3.7-9.5C89.1,28.6,86.2,27.3,82.7,27.3z"/>
	<path id="XMLID_2373_" class="st1" d="M83.3,3.4c10.1,0,18.7,3.7,25.9,11c7.2,7.3,10.8,16.1,10.8,26.3c0,10.4-3.6,19.2-10.9,26.4
		C101.9,74.4,93,78,82.7,78C72.4,78,63.6,74.3,56.3,67C49,59.8,45.3,51,45.3,40.7c0-10.4,3.7-19.2,11-26.4C63.7,7,72.7,3.4,83.3,3.4
		z M82.7,24.3c-4.3,0-8,1.6-11.1,4.8c-3.1,3.2-4.6,7-4.6,11.6c0,4.5,1.5,8.4,4.6,11.6c3.1,3.2,6.8,4.8,11.1,4.8
		c4.4,0,8.1-1.6,11.1-4.8c3-3.2,4.6-7,4.6-11.6c0-4.5-1.5-8.4-4.6-11.6C90.7,25.9,87,24.3,82.7,24.3z"/>
	<path id="XMLID_887_" class="st0" d="M152.4,81c-8.9,0-15.9-2.6-21-7.9c-5.1-5.3-7.5-12.5-7.5-21.7V0h28v47.8c0,4,0.8,4.6,0.8,4.6
		c0,0,0.8,0.6,4.4,0.6h7.4l0.1,3.1c0.3,2.1-0.5,15.5,14.9,23.2l0,1.7H152.4z"/>
	<path id="XMLID_2370_" class="st1" d="M126.7,3.4h22.3v44.5c0,3.5,0.6,5.8,1.7,6.9c1.1,1.1,3.3,1.7,6.6,1.7h4.5c0,0,0.8,16,12,21.7
		l-21.3,0c-8.1,0-14.4-2.4-19-7.1c-4.5-4.7-6.8-11.3-6.8-19.7V3.4z"/>
	<path id="XMLID_884_" class="st0" d="M195,81.5c-9.1,0-16.5-2.8-21.5-8.3c-4.9-5.4-7.6-13.2-7.6-23V0h28v50.1
		c0,3.7,1.4,3.7,2.1,3.7c0.6,0,1.9,0,1.9-3.7V0h27v50.9c0,9.2-2.6,16.6-8.1,22.2C211.3,78.7,204.1,81.5,195,81.5z"/>
	<path id="XMLID_2367_" class="st2" d="M222.5,3.4v47.5c0,8.4-2.5,15.1-7.5,20.1c-5,5-11.6,7.5-19.9,7.5c-8.3,0-14.6-2.4-19-7.3
		c-4.4-4.9-6.6-11.9-6.6-21V3.4h21.8v46.8c0,4.5,1.6,6.7,4.8,6.7c3.1,0,4.6-2.2,4.6-6.7V3.4H222.5z"/>
</g>
</svg>
