<?xml version="1.0" encoding="utf-8"?>
<!-- Generator: Adobe Illustrator 16.0.2, SVG Export Plug-In . SVG Version: 6.00 Build 0)  -->
<!DOCTYPE svg PUBLIC "-//W3C//DTD SVG 1.1//EN" "http://www.w3.org/Graphics/SVG/1.1/DTD/svg11.dtd">
<svg version="1.1" id="圖層_1" xmlns="http://www.w3.org/2000/svg" xmlns:xlink="http://www.w3.org/1999/xlink" x="0px" y="0px"
	 width="375px" height="300px" viewBox="0 0 375 300" enable-background="new 0 0 375 300" xml:space="preserve">
<circle fill="#84DBFF" cx="187.5" cy="150.001" r="148.201"/>
<g>
	<path fill="#324A5E" d="M293.571,219.311c0,6.552-4.665,11.861-10.421,11.861H91.852c-5.756,0-10.423-5.31-10.423-11.861V80.688
		c0-6.55,4.667-11.859,10.423-11.859H283.15c5.756,0,10.421,5.31,10.421,11.859V219.311z"/>
	<polygon fill="#E6E9EE" points="206.171,104.522 200.707,92.098 158.873,92.098 153.411,104.522 	"/>
	<path fill="#FFFFFF" d="M282.657,208.569c0,4.712-4.186,8.525-9.35,8.525H101.693c-5.163,0-9.351-3.813-9.351-8.525v-99.646
		c0-4.71,4.188-8.525,9.351-8.525h171.614c5.164,0,9.35,3.815,9.35,8.525V208.569z"/>
	<polygon fill="#FFFFFF" points="153.411,104.522 147.95,92.098 106.114,92.098 100.653,104.522 	"/>
	<path fill="#F96E52" d="M239.209,86.952c0,2.84-2.304,5.146-5.148,5.146c-2.841,0-5.146-2.306-5.146-5.146
		c0-2.845,2.305-5.15,5.146-5.15C236.905,81.802,239.209,84.107,239.209,86.952z"/>
	<path fill="#E6E9EE" d="M257.012,86.952c0,2.84-2.304,5.146-5.146,5.146c-2.845,0-5.149-2.306-5.149-5.146
		c0-2.845,2.305-5.15,5.149-5.15C254.708,81.802,257.012,84.107,257.012,86.952z"/>
	<path fill="#6C9CA9" d="M274.814,86.952c0,2.84-2.306,5.146-5.149,5.146c-2.842,0-5.146-2.306-5.146-5.146
		c0-2.845,2.305-5.15,5.146-5.15C272.509,81.802,274.814,84.107,274.814,86.952z"/>
	<g>
		<path fill="#6C9CA9" d="M252.323,183.688c-0.095-0.113-0.203-0.213-0.317-0.294l0,0c-0.324-0.203-0.68-0.962-0.68-0.962
			l-10.336-26.424l-7.62-19.73l-5.155,2.154l8.741,20.17c0,0,12.248,24.627,12.278,24.518c0.003,0.016,0.021,0.037,0.021,0.037
			c0.206,0.411,0.197,0.991,0.173,1.408c-0.002,0.017-0.002,0.035-0.004,0.053c0,0.028-0.002,0.061-0.002,0.084l0,0
			c-0.009,0.375,0.113,0.757,0.369,1.068c0.006,0.009,0.021,0.021,0.03,0.022c0.039,0.017,0.081-0.002,0.097-0.041l0.519-1.274
			c0.14-0.344,0.529-0.508,0.873-0.367c0.344,0.137,0.508,0.529,0.37,0.873l-0.518,1.274c-0.005,0.007-0.008,0.026-0.008,0.036
			c0.005,0.04,0.042,0.069,0.082,0.065c0.27-0.015,0.665-0.182,0.861-0.363C252.796,185.421,252.897,184.388,252.323,183.688z"/>
		<path fill="#6C9CA9" d="M228.463,120.585l-6,1.753l0.556,1.569l-64.783,10.52l-1.383-4.061l-3.786,1.016l1.754,5.537
			l-36.268,43.188c0,0-0.092,0.085-0.24,0.229c-0.054-0.333-0.343-0.587-0.691-0.587c-0.39,0-0.705,0.314-0.705,0.704
			c0,0.365,0.28,0.662,0.637,0.695c-0.334,0.387-0.7,0.854-1.007,1.35c-0.005-0.385-0.317-0.694-0.703-0.694
			c-0.389,0-0.703,0.315-0.703,0.704c0,0.391,0.314,0.703,0.703,0.703c0.136,0,0.262-0.041,0.369-0.105
			c-0.279,0.58-0.437,1.175-0.335,1.707c0,0,0.369,1.017-0.46,1.938c-0.831,0.921-0.369,1.386,0.184,1.661l-0.184,0.554
			c0,0,1.717,1.099,2.271-1.3c0,0-0.145-2.124-0.054-2.286c0,0-1.259-2.121,0.643-1.581l0.462,1.568c0,0,0.554,0.092,1.753,0.463
			l24.824,4.798l28.238,5.15c0.477,0.422,1.103,0.68,1.79,0.68c1.496,0,2.708-1.214,2.708-2.709c0-0.015,0-0.028,0-0.042
			c0-0.016,0-0.029,0-0.045c0-0.024-0.003-0.043-0.003-0.064l49.397-56.309l0.554,1.475l5.998-1.937L228.463,120.585z
			 M115.843,182.753c-0.137,0-0.246-0.108-0.246-0.244c0-0.138,0.109-0.247,0.246-0.247c0.136,0,0.246,0.109,0.246,0.247
			C116.089,182.645,115.979,182.753,115.843,182.753z M117.621,180.7c-0.137,0-0.247-0.112-0.247-0.246
			c0-0.136,0.11-0.247,0.247-0.247c0.135,0,0.246,0.111,0.246,0.247C117.867,180.588,117.756,180.7,117.621,180.7z M146.515,187.213
			l-25.009-3.506c0,0-0.829,1.569-1.198-1.568c0,0-0.369-1.478,1.015-2.677l34.328-39.958l16.979,52.139L146.515,187.213z
			 M175.398,195.842c-1.199,0-2.169-0.972-2.169-2.17c0-1.199,0.97-2.169,2.169-2.169c1.197,0,2.17,0.97,2.17,2.169
			C177.568,194.87,176.596,195.842,175.398,195.842z M176.23,189.707l-16.796-51.773l64.875-10.428l1.937,5.446L176.23,189.707z"/>
		
			<path fill="none" stroke="#D21577" stroke-width="0.5484" stroke-linecap="round" stroke-linejoin="round" stroke-miterlimit="10" d="
			M169.2,191.561c0.003,0.003,0.005,0.003,0.005,0.003S169.203,191.563,169.2,191.561z"/>
		<path fill="none" d="M158.339,131.586l0.601-0.031C158.829,131.541,158.584,131.516,158.339,131.586z"/>
		<text transform="matrix(1 0 0 1 185.6572 125.6064)" fill="#F96E52" font-family="'GillSansMT'" font-size="4.8942">B</text>
		<text transform="matrix(1 0 0 1 236.0215 129.4395)" fill="#F96E52" font-family="'GillSansMT'" font-size="4.8942">C</text>
		<text transform="matrix(1 0 0 1 249.2314 155.0225)" fill="#F96E52" font-family="'GillSansMT'" font-size="4.8942">D</text>
		<text transform="matrix(1 0 0 1 200.624 182.3604)" fill="#F96E52" font-family="'GillSansMT'" font-size="4.8942">I</text>
		<text transform="matrix(1 0 0 1 185.1641 189.9658)" fill="#F96E52" font-family="'GillSansMT'" font-size="4.8942">J</text>
		<text transform="matrix(1 0 0 1 154.6494 165.3545)" fill="#F96E52" font-family="'GillSansMT'" font-size="4.8942">A</text>
		<text transform="matrix(1 0 0 1 156.6396 176.5654)" fill="#F96E52" font-family="'GillSansMT'" font-size="4.8942">E</text>
		<text transform="matrix(1 0 0 1 233.6045 177.2158)" fill="#F96E52" font-family="'GillSansMT'" font-size="4.8942">F</text>
		<text transform="matrix(1 0 0 1 143.1377 197.2051)" fill="#F96E52" font-family="'GillSansMT'" font-size="4.8942">G</text>
		<text transform="matrix(1 0 0 1 225.9932 197.2051)" fill="#F96E52" font-family="'GillSansMT'" font-size="4.8942">H</text>
		<polyline fill="none" stroke="#F96E52" points="154.562,130.864 154.562,119.816 225.37,119.816 225.37,120.655 		"/>
		<polyline fill="none" stroke="#F96E52" points="252.037,183.003 257.1,180.835 239.192,134.616 234.749,136.464 236.764,135.625 
			231.06,119.823 228.707,120.585 		"/>
		<polyline fill="none" stroke="#F96E52" points="121.354,184.141 120.179,187.839 173.593,198.597 175.388,193.222 		"/>
		<line fill="none" stroke="#F96E52" x1="247.752" y1="183.665" x2="121.506" y2="183.665"/>
		<polyline fill="none" stroke="#F96E52" points="154.139,130.864 149.769,132.378 170.337,195.725 174.652,193.714 		"/>
		<path fill="none" stroke="#F96E52" d="M165.708,172.157c0,0-6.218,4.204-7.227,10.927"/>
		<path fill="none" stroke="#F96E52" d="M242.843,171.914c0,0-6.221,4.202-7.229,10.925"/>
		<polyline fill="none" stroke="#F96E52" points="175.454,193.462 176.399,199.177 249.149,189.924 249.14,186.556 		"/>
		<line fill="none" stroke="#F96E52" x1="175.382" y1="183.748" x2="175.382" y2="193.396"/>
		<line fill="none" stroke="#F96E52" x1="171.832" y1="193.218" x2="185.873" y2="193.218"/>
	</g>
</g>
</svg>
