<?xml version="1.0" encoding="utf-8"?>
<!-- Generator: Adobe Illustrator 16.0.2, SVG Export Plug-In . SVG Version: 6.00 Build 0)  -->
<!DOCTYPE svg PUBLIC "-//W3C//DTD SVG 1.1//EN" "http://www.w3.org/Graphics/SVG/1.1/DTD/svg11.dtd">
<svg version="1.1" id="圖層_1" xmlns="http://www.w3.org/2000/svg" xmlns:xlink="http://www.w3.org/1999/xlink" x="0px" y="0px"
	 width="375px" height="300px" viewBox="0 0 375 300" enable-background="new 0 0 375 300" xml:space="preserve">
<g>
	<path fill="#FF8366" d="M335.699,149.999c0,81.852-66.354,148.201-148.2,148.201c-81.848,0-148.2-66.35-148.2-148.201
		c0-81.846,66.352-148.199,148.2-148.199C269.346,1.8,335.699,68.153,335.699,149.999z"/>
</g>
<g>
	<rect x="220.88" y="216.804" fill-rule="evenodd" clip-rule="evenodd" fill="#FFFFFF" width="37.096" height="21.173"/>
	<path fill-rule="evenodd" clip-rule="evenodd" fill="#324A5E" d="M244.28,145.393c0,4.003-2.372,7.246-5.296,7.246l0,0
		c-2.925,0-5.294-3.243-5.294-7.246v-29.398c0-4.002,2.369-7.248,5.294-7.248l0,0c2.924,0,5.296,3.246,5.296,7.248V145.393z"/>
	<path fill-rule="evenodd" clip-rule="evenodd" fill="#FFFFFF" d="M282.458,62.453c0,4.244-4.581,7.686-10.229,7.686H102.77
		c-5.65,0-10.229-3.441-10.229-7.686l0,0c0-4.248,4.578-7.689,10.229-7.689h169.459C277.877,54.764,282.458,58.205,282.458,62.453
		L282.458,62.453z"/>
	<path fill-rule="evenodd" clip-rule="evenodd" fill="#FFFFFF" d="M128.771,76.778c0,2.983-3.731,5.398-8.331,5.398l0,0
		c-4.603,0-8.334-2.415-8.334-5.398V63.501c0-2.982,3.731-5.398,8.334-5.398l0,0c4.6,0,8.331,2.416,8.331,5.398V76.778z"/>
	<path fill-rule="evenodd" clip-rule="evenodd" fill="#FFFFFF" d="M182.346,76.978c0,2.982-3.729,5.398-8.332,5.398l0,0
		c-4.602,0-8.334-2.416-8.334-5.398V63.699c0-2.98,3.732-5.398,8.334-5.398l0,0c4.603,0,8.332,2.418,8.332,5.398V76.978z"/>
	<rect x="116.08" y="77.236" fill-rule="evenodd" clip-rule="evenodd" fill="#324A5E" width="8.721" height="84.91"/>
	<rect x="169.653" y="77.436" fill-rule="evenodd" clip-rule="evenodd" fill="#324A5E" width="8.721" height="101.762"/>
	<path fill-rule="evenodd" clip-rule="evenodd" fill="#FFFFFF" d="M135.902,241.648c0.679,0,1.332,0.113,1.945,0.314v-98.96
		c0-9.613-7.794-17.407-17.407-17.407c-9.615,0-17.408,7.794-17.408,17.407v98.646H135.902z"/>
	<path fill-rule="evenodd" clip-rule="evenodd" fill="#FFFFFF" d="M191.424,243.403v-56.778c0-9.611-7.797-17.406-17.41-17.406
		c-9.615,0-17.407,7.795-17.407,17.406v56.778H191.424z"/>
	<g>
		<path fill="#324A5E" d="M282.458,243.057c0-6.814-4.717-12.34-10.536-12.34H104.978c-5.819,0-10.538,5.525-10.538,12.34v2.18
			h188.019V243.057z"/>
	</g>
	<circle fill-rule="evenodd" clip-rule="evenodd" fill="#F9B54C" cx="120.44" cy="142.43" r="9.858"/>
	<circle fill-rule="evenodd" clip-rule="evenodd" fill="#F9B54C" cx="173.778" cy="188.003" r="9.859"/>
	<path fill-rule="evenodd" clip-rule="evenodd" fill="#F3EFE5" d="M224.945,70.139v48.424c0,7.996,6.485,14.482,14.483,14.482
		c8,0,14.484-6.486,14.484-14.482V70.139H224.945z"/>
	<g>
		<path fill-rule="evenodd" clip-rule="evenodd" fill="#FFFFFF" d="M255.472,85.198c0,1.559-2.166,2.822-4.839,2.822h-22.259
			c-2.672,0-4.837-1.264-4.837-2.822l0,0c0-1.559,2.165-2.822,4.837-2.822h22.259C253.306,82.376,255.472,83.64,255.472,85.198
			L255.472,85.198z"/>
		<path fill-rule="evenodd" clip-rule="evenodd" fill="#FFFFFF" d="M255.472,98.09c0,1.558-2.166,2.822-4.839,2.822h-22.259
			c-2.672,0-4.837-1.265-4.837-2.822l0,0c0-1.558,2.165-2.821,4.837-2.821h22.259C253.306,95.269,255.472,96.532,255.472,98.09
			L255.472,98.09z"/>
		<path fill-rule="evenodd" clip-rule="evenodd" fill="#FFFFFF" d="M255.472,110.982c0,1.559-2.166,2.82-4.839,2.82h-22.259
			c-2.672,0-4.837-1.262-4.837-2.82l0,0c0-1.559,2.165-2.821,4.837-2.821h22.259C253.306,108.161,255.472,109.424,255.472,110.982
			L255.472,110.982z"/>
	</g>
	<polygon fill-rule="evenodd" clip-rule="evenodd" fill="#324A5E" points="249.729,139.78 228.238,139.78 217.496,158.392 
		228.238,177 230.407,177 222.181,159.564 230.583,145.01 247.386,145.01 255.788,159.564 247.56,177 249.729,177 260.475,158.392 	
		"/>
	<g>
		<path fill="#324A5E" d="M261.995,215.924c0-2.746-2.389-4.971-5.337-4.971H222.2c-2.948,0-5.341,2.225-5.341,4.971v0.995h45.136
			V215.924z"/>
	</g>
</g>
</svg>
